# Blender v2.78 (sub 0) OBJ File: 'BSwap_GrassPatches_01.blend'
# www.blender.org
mtllib grass.mtl
o GrassPatch02_LoD_GrassPatch02.001
v 23.082970 -1.941736 27.720118
v 12.722061 -1.941736 -23.993444
v 19.833393 24.119974 28.092916
v 8.892813 22.715734 -22.845404
v 9.249290 -2.276472 26.558767
v -28.410809 -1.663602 -11.364856
v 11.957172 29.204063 24.909199
v -26.502100 28.942572 -13.651986
v -5.840616 -1.941738 -23.485718
v -31.327971 -1.941738 22.158897
v -3.071250 29.386669 -23.335358
v -26.106094 32.588634 25.041088
v 36.441120 -1.532546 2.997795
v -5.869684 -1.532546 8.368115
v 36.159931 20.694962 -2.366102
v -6.977925 20.284716 3.179816
vt 0.9934 0.0090
vt 0.9935 0.9131
vt 0.0139 0.0090
vt 0.9935 0.9131
vt 0.0148 0.9055
vt 0.9934 0.0090
vt 0.0139 0.0090
vt 0.9934 0.0090
vt 0.0148 0.9055
vt 0.0139 0.0090
vt 0.9934 0.0090
vt 0.0148 0.9055
vt 0.0148 0.9055
vt 0.0139 0.0090
vt 0.9935 0.9131
vt 0.9935 0.9131
vn 0.8704 -0.0793 0.4860
vn 0.8771 -0.1133 0.4667
vn 0.8814 -0.1395 0.4513
vn 0.1218 0.2343 0.9645
vn 0.1222 0.2351 0.9642
vn 0.1220 0.2347 0.9644
vn -0.9680 -0.1593 0.1939
vn -0.9692 -0.1340 0.2066
vn -0.9686 -0.1490 0.1991
vn -0.7055 0.0964 0.7021
vn -0.7051 0.0971 0.7024
vn -0.7053 0.0968 0.7022
vn 0.8853 -0.1700 0.4328
vn 0.1223 0.2355 0.9641
vn -0.9695 -0.1239 0.2116
vn -0.7050 0.0974 0.7025
usemtl Grass01
s 1
f 9/1/1 11/2/2 10/3/3
f 15/4/4 16/5/5 13/6/6
f 2/7/7 1/8/8 4/9/9
f 6/10/10 5/11/11 8/12/12
f 11/2/2 12/13/13 10/3/3
f 16/5/5 14/14/14 13/6/6
f 1/8/8 3/15/15 4/9/9
f 5/11/11 7/16/16 8/12/12
o GrassPatch01_LoD_GrassPatch01.002
v 14.711107 -2.457216 -26.850565
v -17.145294 -2.443682 24.231810
v -18.768383 24.541470 21.936733
v 12.496159 24.350838 -28.161366
v 23.203972 -3.227226 -16.506504
v -30.885201 -2.566278 3.246618
v -31.947077 22.393063 -0.496225
v 25.550074 23.592533 -16.325594
v -26.274845 -3.118360 -24.905836
v 28.979002 -3.118360 20.488520
v 27.439655 28.534531 18.640465
v -26.274845 28.986210 -24.905836
v 25.424309 -2.553776 5.283581
v -22.293629 -2.667442 20.428074
v 25.120975 20.280197 3.943183
v -23.119415 19.650208 17.370640
vt 0.0067 0.0080
vt 0.9656 0.0080
vt 0.0067 0.8842
vt 0.0067 0.8500
vt 0.0067 0.0080
vt 0.9656 0.0080
vt 0.0067 0.0080
vt 0.9656 0.0080
vt 0.9738 0.8834
vt 0.0067 0.8842
vt 0.9631 0.9215
vt 0.0067 0.9232
vt 0.9656 0.0080
vt 0.0067 0.0080
vt 0.9656 0.8523
vt 0.9656 0.8865
vn 0.8446 0.0956 0.5267
vn 0.3213 0.1035 0.9413
vn 0.3406 0.1536 0.9275
vn 0.2857 0.0163 0.9582
vn 0.2832 0.1000 0.9538
vn 0.6297 0.0000 -0.7768
vn 0.6334 -0.0105 -0.7737
vn 0.6311 -0.0039 -0.7757
vn 0.6347 -0.0142 -0.7726
vn 0.2659 -0.0298 0.9635
vn 0.8446 0.0955 0.5267
usemtl Grass01
s 1
f 18/17/17 17/18/17 19/19/17
f 23/20/18 22/21/19 21/22/20
f 30/23/21 29/24/21 31/25/21 32/26/21
f 28/27/22 27/28/23 25/29/24
f 27/28/23 26/30/25 25/29/24
f 24/31/26 23/20/18 21/22/20
f 17/18/17 20/32/27 19/19/17
o GrassPatch01
v 6.215955 -2.467250 -29.769266
v -25.672396 -2.467252 21.293171
v -1.310799 25.636768 -23.832907
v -26.976912 21.529202 19.202284
v 4.316876 16.757332 -30.877596
v -25.035192 8.460509 22.378523
v 10.272875 8.460510 -17.120205
v 3.049992 19.461376 -17.746319
v 9.185868 -2.467250 -17.754589
v -6.045490 8.460510 10.840500
v -11.705822 28.571180 7.537032
v -7.132491 -2.467250 10.206107
v 19.940517 -2.860746 -22.978067
v -30.709446 -2.860746 4.423427
v 16.364140 23.471556 -15.165005
v -30.709446 19.469519 4.423427
v 23.973473 15.755615 -19.377161
v -28.992508 7.715668 9.288169
v 19.051987 7.715668 -7.668344
v 14.524391 18.355528 -11.541088
v 17.335060 -2.860746 -12.533077
v -13.467918 7.715668 -6.281667
v -16.083048 27.114532 -13.691353
v -15.184847 -2.860746 -11.146402
v -27.955542 -3.118359 -23.112394
v 30.468172 -3.118359 18.122356
v -18.704327 28.814129 -18.022524
v 28.797878 23.141653 16.391745
v -27.955542 18.774164 -23.112394
v 29.545467 9.319318 13.917390
v -13.473438 9.319318 -23.037924
v -13.097250 21.831621 -18.235651
v -16.059017 -3.118359 -20.640432
v 5.512740 9.319318 6.081750
v 4.437973 32.132061 10.450774
v 4.437967 -3.118359 10.450774
v 23.040115 -2.652376 -1.045693
v -24.661087 -2.652378 14.151855
v 15.073616 20.718918 -1.335118
v -24.362286 17.303068 12.124299
v 22.433107 13.334782 -2.770556
v -24.841515 6.435148 15.182818
v 18.801851 6.435149 9.155663
v 14.560877 15.583466 4.870363
v 18.454411 -2.652376 8.168377
v -6.593836 6.435149 18.092863
v -8.403064 23.159174 12.951791
v -6.941275 -2.652378 17.105583
vt 0.3262 0.3490
vt 0.8280 0.3490
vt 0.7799 0.6920
vt 0.3262 0.0080
vt 0.8280 0.0080
vt 0.0067 0.0080
vt 0.0067 0.3490
vt 0.9656 0.0080
vt 0.0067 0.7279
vt 0.9656 0.6082
vt 0.8274 0.8834
vt 0.3262 0.9744
vt 0.3262 0.3490
vt 0.8280 0.3490
vt 0.7799 0.6920
vt 0.3262 0.0080
vt 0.8280 0.0080
vt 0.0067 0.3490
vt 0.0067 0.0080
vt 0.9656 0.0080
vt 0.9656 0.6082
vt 0.8274 0.8834
vt 0.3262 0.9744
vt 0.0067 0.7279
vt 0.3262 0.3490
vt 0.8280 0.3490
vt 0.7799 0.6920
vt 0.3262 0.0080
vt 0.8280 0.0080
vt 0.0067 0.0080
vt 0.0067 0.3490
vt 0.9656 0.0080
vt 0.0067 0.7279
vt 0.9656 0.6082
vt 0.8274 0.8834
vt 0.3262 0.9744
vt 0.3262 0.3490
vt 0.8280 0.3490
vt 0.7799 0.6920
vt 0.3262 0.0080
vt 0.8280 0.0080
vt 0.0067 0.0080
vt 0.0067 0.3490
vt 0.9656 0.0080
vt 0.0067 0.7279
vt 0.9656 0.6082
vt 0.8274 0.8834
vt 0.3262 0.9744
vn 0.7265 0.1101 0.6782
vn 0.9704 0.1972 0.1392
vn 0.8387 0.5168 0.1716
vn 0.7049 -0.1129 0.7002
vn 0.9857 -0.1057 0.1311
vn 0.5098 -0.1144 0.8526
vn 0.5153 0.0835 0.8529
vn 0.9503 0.0073 -0.3111
vn 0.4997 0.2747 0.8215
vn 0.9081 0.3869 -0.1598
vn 0.8346 0.5499 -0.0332
vn 0.7067 0.3038 0.6389
vn 0.4098 -0.0384 0.9113
vn 0.5666 -0.0564 0.8220
vn 0.2087 0.4124 0.8867
vn 0.3568 -0.4375 0.8253
vn 0.6282 -0.4070 0.6631
vn 0.7030 -0.0217 0.7109
vn 0.6482 -0.4025 0.6463
vn 0.9399 -0.2529 0.2293
vn 0.8823 0.1220 0.4546
vn 0.6162 0.4216 0.6652
vn 0.3561 0.3790 0.8541
vn 0.6392 0.3719 0.6731
vn 0.6220 -0.0718 -0.7797
vn 0.5187 -0.0027 -0.8549
vn 0.6134 0.2608 -0.7454
vn 0.5531 -0.3099 -0.7733
vn 0.5302 -0.2639 -0.8057
vn 0.2705 -0.2902 -0.9179
vn 0.2990 -0.0744 -0.9513
vn 0.0949 -0.1046 -0.9900
vn 0.3022 0.1879 -0.9345
vn 0.1193 0.1751 -0.9773
vn 0.2536 0.3043 -0.9182
vn 0.5807 0.1794 -0.7941
vn 0.1147 0.1101 0.9873
vn 0.6495 0.1972 0.7343
vn 0.5281 0.5168 0.6738
vn 0.0839 -0.1129 0.9901
vn 0.6664 -0.1057 0.7381
vn -0.1633 -0.1144 0.9799
vn -0.1594 0.0835 0.9837
vn 0.9257 0.0073 0.3781
vn -0.1509 0.2747 0.9496
vn 0.7956 0.3869 0.4661
vn 0.6576 0.5499 0.5150
vn 0.1250 0.3038 0.9445
usemtl Grass01
s 1
f 42/33/28 39/34/29 40/35/30
f 44/36/31 41/37/32 39/34/29
f 34/38/33 44/36/31 38/39/34
f 39/34/29 41/37/32 33/40/35
f 38/39/34 42/33/28 36/41/36
f 39/34/29 37/42/37 35/43/38
f 39/34/29 35/43/38 40/35/30
f 42/33/28 43/44/39 36/41/36
f 54/45/40 51/46/41 52/47/42
f 56/48/43 53/49/44 54/45/40
f 50/50/45 46/51/46 54/45/40
f 51/46/41 53/49/44 45/52/47
f 51/46/41 49/53/48 47/54/49
f 51/46/41 47/54/49 52/47/42
f 43/44/39 42/33/28 40/35/30
f 42/33/28 44/36/31 39/34/29
f 44/36/31 42/33/28 38/39/34
f 37/42/37 39/34/29 33/40/35
f 55/55/50 54/45/40 52/47/42
f 53/49/44 51/46/41 54/45/40
f 49/53/48 51/46/41 45/52/47
f 50/50/45 54/45/40 55/55/50
f 48/56/51 50/50/45 55/55/50
f 46/51/46 56/48/43 54/45/40
f 66/57/52 63/58/53 64/59/54
f 68/60/55 65/61/56 66/57/52
f 58/62/57 68/60/55 62/63/58
f 63/58/53 65/61/56 57/64/59
f 62/63/58 66/57/52 60/65/60
f 63/58/53 61/66/61 59/67/62
f 63/58/53 59/67/62 64/59/54
f 67/68/63 66/57/52 64/59/54
f 65/61/56 63/58/53 66/57/52
f 68/60/55 66/57/52 62/63/58
f 61/66/61 63/58/53 57/64/59
f 66/57/52 67/68/63 60/65/60
f 78/69/64 75/70/65 76/71/66
f 80/72/67 77/73/68 75/70/65
f 70/74/69 80/72/67 74/75/70
f 75/70/65 77/73/68 69/76/71
f 74/75/70 78/69/64 72/77/72
f 75/70/65 73/78/73 71/79/74
f 75/70/65 71/79/74 76/71/66
f 78/69/64 79/80/75 72/77/72
f 79/80/75 78/69/64 76/71/66
f 78/69/64 80/72/67 75/70/65
f 80/72/67 78/69/64 74/75/70
f 73/78/73 75/70/65 69/76/71
o GrassPatch02
v 18.683252 -1.941736 29.850193
v 9.413542 -1.941736 -22.070068
v 15.349733 24.817327 26.284870
v 1.660145 19.474276 -22.931059
v 22.225943 17.071552 32.185513
v 8.256804 8.503476 -27.996811
v 25.225620 10.900135 10.811696
v 17.865803 20.605036 13.651324
v 22.380892 -1.941736 11.509557
v 19.840631 10.900135 -11.139674
v 8.959764 25.896914 -8.470433
v 16.995893 -1.941736 -10.441819
v 10.770578 -2.276472 26.792812
v -26.889521 -1.663602 -11.130812
v 9.426840 27.533737 18.278976
v -28.494444 23.474363 -16.868481
v 14.043879 16.658981 25.771931
v -31.662092 8.799933 -14.079203
v -6.306648 11.362684 16.474421
v -1.850751 22.152708 14.144918
v -4.169809 -1.781969 14.736458
v -20.568243 11.362684 -1.060344
v -16.214705 29.699396 -4.601227
v -18.431404 -1.781969 -2.798305
v -7.712971 -1.941738 -25.592117
v -33.200325 -1.941738 20.052498
v 3.129768 24.171938 -11.826345
v -23.248329 19.632435 29.947964
v -4.943605 16.619621 -25.441757
v -34.245056 8.051545 26.054863
v -14.696920 10.448204 -10.401375
v -4.470421 18.477367 -7.807667
v -16.967218 -1.941738 -11.214006
v -23.245192 10.448204 10.099798
v -11.353868 24.148773 14.801760
v -24.584223 -1.941738 10.066078
v 37.260277 -1.532546 5.104194
v -3.798278 -1.532546 9.191197
v 30.707691 19.078026 -7.075439
v -7.829661 15.495162 -1.125930
v 38.022797 13.117257 3.052316
v -8.471717 6.354787 8.058835
v 24.067247 8.246385 5.379797
v 25.407495 14.583508 -2.838607
v 23.941135 -1.532546 7.278811
v 6.538126 8.246385 5.116836
v 6.876170 19.059742 -4.969950
v 6.141219 -1.532546 6.096694
vt 0.6701 0.4039
vt 0.9934 0.5936
vt 0.8593 0.9229
vt 0.6701 0.0090
vt 0.9934 0.0090
vt 0.3226 0.4039
vt 0.6855 0.7480
vt 0.3226 0.0090
vt 0.1042 0.0090
vt 0.0067 0.3302
vt 0.0197 0.7835
vt 0.6701 0.4039
vt 0.9934 0.5936
vt 0.6855 0.7480
vt 0.6701 0.0090
vt 0.9934 0.0090
vt 0.3226 0.4039
vt 0.3226 0.0090
vt 0.1042 0.0090
vt 0.0067 0.3302
vt 0.0197 0.7835
vt 0.6701 0.4039
vt 0.9934 0.5936
vt 0.6855 0.7480
vt 0.6701 0.0090
vt 0.9934 0.0090
vt 0.3226 0.0090
vt 0.3226 0.4039
vt 0.1042 0.0090
vt 0.0067 0.3302
vt 0.0197 0.7835
vt 0.3226 0.9809
vt 0.3226 0.9809
vt 0.8593 0.9229
vt 0.3226 0.9809
vt 0.8593 0.9229
vt 0.6701 0.4039
vt 0.9934 0.5936
vt 0.6855 0.7480
vt 0.6701 0.0090
vt 0.9934 0.0090
vt 0.3226 0.0090
vt 0.3226 0.4039
vt 0.1042 0.0090
vt 0.0067 0.3302
vt 0.0197 0.7835
vt 0.3226 0.9809
vt 0.8593 0.9229
vn -0.9804 -0.1827 0.0736
vn -0.9622 -0.2660 -0.0582
vn -0.7774 -0.6254 0.0663
vn -0.9761 0.2169 0.0134
vn -0.9600 0.2024 -0.1933
vn -0.8885 -0.2156 0.4050
vn -0.7813 -0.6150 0.1065
vn -0.8935 0.2192 0.3919
vn -0.8191 0.2112 0.5332
vn -0.7792 -0.2563 0.5719
vn -0.6179 -0.5795 0.5313
vn -0.6239 0.0813 0.7772
vn -0.5062 0.1947 0.8401
vn -0.5777 0.3678 0.7287
vn -0.6351 -0.1207 0.7629
vn -0.6180 0.1484 0.7720
vn -0.7569 0.0707 0.6496
vn -0.7253 -0.2048 0.6573
vn -0.7176 -0.1733 0.6746
vn -0.7664 0.0788 0.6375
vn -0.7517 0.2846 0.5949
vn 0.8008 -0.4659 0.3763
vn 0.7963 -0.5276 0.2958
vn 0.5826 -0.7920 0.1824
vn 0.8763 -0.1748 0.4489
vn 0.8444 -0.1534 0.5133
vn 0.8744 -0.1318 0.4668
vn 0.8078 -0.4411 0.3910
vn 0.7225 -0.2989 0.6234
vn 0.7351 -0.4822 0.4765
vn 0.6435 -0.6946 0.3215
vn -0.7153 -0.5866 0.3797
vn 0.6411 -0.7013 0.3116
vn -0.4673 0.3584 0.8082
vn -0.7223 0.2925 0.6266
vn 0.6203 -0.7815 0.0657
vn 0.0259 0.4659 0.8844
vn -0.0462 0.5276 0.8482
vn -0.0649 0.7920 0.6070
vn 0.0624 0.1748 0.9826
vn 0.1341 0.1534 0.9790
vn 0.0795 0.1318 0.9881
vn 0.0365 0.4411 0.8967
vn 0.2837 0.2989 0.9111
vn 0.1440 0.4822 0.8641
vn 0.0384 0.6946 0.7183
vn 0.0302 0.7013 0.7122
vn -0.1870 0.7815 0.5951
usemtl Grass01
s 1
f 87/81/76 85/82/77 83/83/78
f 89/84/79 81/85/80 87/81/76
f 90/86/81 87/81/76 88/87/82
f 92/88/83 89/84/79 87/81/76
f 82/89/84 92/88/83 90/86/81
f 86/90/85 90/86/81 84/91/86
f 99/92/87 97/93/88 100/94/89
f 101/95/90 93/96/91 97/93/88
f 102/97/92 99/92/87 100/94/89
f 104/98/93 101/95/90 99/92/87
f 94/99/94 104/98/93 102/97/92
f 98/100/95 102/97/92 96/101/96
f 111/102/97 109/103/98 112/104/99
f 113/105/100 105/106/101 111/102/97
f 116/107/102 113/105/100 114/108/103
f 106/109/104 116/107/102 110/110/105
f 110/110/105 114/108/103 108/111/106
f 88/87/82 87/81/76 83/83/78
f 90/86/81 91/112/107 84/91/86
f 114/108/103 111/102/97 115/113/108
f 111/102/97 112/104/99 115/113/108
f 116/107/102 114/108/103 110/110/105
f 99/92/87 101/95/90 97/93/88
f 81/85/80 85/82/77 87/81/76
f 91/112/107 90/86/81 88/87/82
f 90/86/81 92/88/83 87/81/76
f 86/90/85 82/89/84 90/86/81
f 97/93/88 95/114/109 100/94/89
f 103/115/110 102/97/92 100/94/89
f 102/97/92 104/98/93 99/92/87
f 98/100/95 94/99/94 102/97/92
f 102/97/92 103/115/110 96/101/96
f 109/103/98 107/116/111 112/104/99
f 105/106/101 109/103/98 111/102/97
f 113/105/100 111/102/97 114/108/103
f 114/108/103 115/113/108 108/111/106
f 123/117/112 121/118/113 124/119/114
f 125/120/115 117/121/116 123/117/112
f 128/122/117 125/120/115 126/123/118
f 118/124/119 128/122/117 122/125/120
f 122/125/120 126/123/118 120/126/121
f 126/123/118 123/117/112 127/127/122
f 123/117/112 124/119/114 127/127/122
f 128/122/117 126/123/118 122/125/120
f 121/118/113 119/128/123 124/119/114
f 117/121/116 121/118/113 123/117/112
f 125/120/115 123/117/112 126/123/118
f 126/123/118 127/127/122 120/126/121
