<?xml version="1.0" encoding="UTF-8" standalone="no"?>
<!-- Created with Inkscape (http://www.inkscape.org/) -->

<svg
   xmlns:dc="http://purl.org/dc/elements/1.1/"
   xmlns:cc="http://creativecommons.org/ns#"
   xmlns:rdf="http://www.w3.org/1999/02/22-rdf-syntax-ns#"
   xmlns:svg="http://www.w3.org/2000/svg"
   xmlns="http://www.w3.org/2000/svg"
   xmlns:sodipodi="http://sodipodi.sourceforge.net/DTD/sodipodi-0.dtd"
   xmlns:inkscape="http://www.inkscape.org/namespaces/inkscape"
   width="181mm"
   height="140mm"
   viewBox="0 0 641.33859 496.06299"
   id="svg2"
   version="1.1"
   inkscape:version="0.91 r13725"
   sodipodi:docname="trofeu.svg">
  <defs
     id="defs4" />
  <sodipodi:namedview
     id="base"
     pagecolor="#ffffff"
     bordercolor="#666666"
     borderopacity="1.0"
     inkscape:pageopacity="0.0"
     inkscape:pageshadow="2"
     inkscape:zoom="0.7"
     inkscape:cx="563.84261"
     inkscape:cy="269.64193"
     inkscape:document-units="px"
     inkscape:current-layer="layer1"
     showgrid="false"
     inkscape:window-width="1366"
     inkscape:window-height="705"
     inkscape:window-x="0"
     inkscape:window-y="30"
     inkscape:window-maximized="1" />
  <metadata
     id="metadata7">
    <rdf:RDF>
      <cc:Work
         rdf:about="">
        <dc:format>image/svg+xml</dc:format>
        <dc:type
           rdf:resource="http://purl.org/dc/dcmitype/StillImage" />
        <dc:title></dc:title>
      </cc:Work>
    </rdf:RDF>
  </metadata>
  <g
     inkscape:label="Camada 1"
     inkscape:groupmode="layer"
     id="layer1"
     transform="translate(0,-556.29921)">
    <path
       style="fill:#000000"
       d="m 209.00001,1033.7113 0,-13.9367 3.25,-0.3133 3.25,-0.3134 0.2921,-8.967 c 0.18321,-5.6243 0.74238,-9.2532 1.5,-9.7347 0.66434,-0.4222 2.8954,-0.77457 4.9579,-0.78299 l 3.75,-0.0153 0,-57 0,-57 -5,0 -5,0 0,-8.5 0,-8.5 5.89301,0 c 6.64901,0 7.10699,-0.48197 7.10699,-7.47913 l 0,-4.31556 6.25,-1.0907 c 8.43703,-1.47237 31.44475,-9.02902 41.07303,-13.49002 4.30267,-1.99353 7.98334,-3.62459 8.17929,-3.62459 0.19594,0 3.20057,-1.88771 6.67697,-4.1949 19.11516,-12.68626 23.44326,-25.57857 13.91604,-41.4523 -4.5096,-7.51364 -16.00657,-22.48988 -17.69784,-23.05364 -0.58534,-0.19511 -1.6073,1.45776 -2.27102,3.67305 -0.66371,2.21528 -1.44971,4.02779 -1.74665,4.02779 -0.9887,0 -17.42528,-5.95396 -19.49613,-7.06225 -1.12134,-0.60012 -1.81906,-1.66378 -1.55048,-2.36369 0.37277,-0.97144 -2.62586,-1.42423 -12.67244,-1.91353 C 216.0967,764.67376 193.6615,755.76556 172.71982,735.758 156.69304,720.44611 146.52041,703.84039 136.81541,677.14791 127.68236,652.02852 121.48918,605.30875 123.45983,576.39676 l 0.73264,-10.74885 33.47116,0 c 31.41696,0 33.43791,0.1074 32.92952,1.75 -1.10167,3.55943 -3.59296,16.45169 -3.58756,18.56538 0.0234,9.16196 6.95277,17.23531 20.1794,23.51081 4.57326,2.16982 9.77752,4.25734 11.56502,4.63893 l 3.25,0.69379 0,-6.57945 0,-6.57946 -7.5,0 -7.5,0 0,-9 0,-9 113,0 113,0 0,9 0,9 -7.5,0 -7.5,0 0,6.57946 0,6.57945 3.25,-0.66835 c 6.33462,-1.30268 19.83531,-8.56617 24.72304,-13.30119 7.38421,-7.15352 8.42155,-13.52212 4.60137,-28.24931 -0.77162,-2.97467 -1.18997,-5.75309 -0.92966,-6.17427 0.26031,-0.42119 15.25342,-0.76579 33.31804,-0.76579 l 32.84475,0 0.73277,10.75 c 2.34689,34.42994 -5.80021,86.01666 -17.72266,112.21844 -1.11829,2.45764 -2.46588,5.60764 -2.99464,7 -1.51131,3.97961 -10.88348,20.11371 -14.25018,24.53156 -22.95783,30.12564 -50.92895,44.3684 -90.69011,46.17896 -12.60097,0.57379 -13.58117,0.75818 -13.13337,2.47055 0.26615,1.01777 0.28535,1.85049 0.0426,1.85049 -0.24269,0 -4.90605,1.575 -10.36301,3.5 -5.45697,1.925 -10.22599,3.5 -10.59782,3.5 -0.37184,0 -1.19379,-1.56873 -1.82657,-3.48607 -0.63278,-1.91734 -1.51287,-3.71002 -1.95575,-3.98374 -1.12159,-0.69318 -16.1892,18.80236 -19.6023,25.36283 -11.30912,21.73779 5.36053,39.64415 50.80096,54.56984 7.28887,2.39415 16.17749,4.9167 19.75249,5.60567 6.90874,1.33144 8.29933,2.32385 7.38219,5.26841 -0.31468,1.01032 -0.28402,3.37282 0.0681,5.25 l 0.6403,3.41306 5.95468,0 5.95469,0 0,8 0,8 -5,0 -5,0 0,57.5 0,57.49999 5,0 5,0 0,9.5 0,9.5 3.5,0 3.5,0 0,14 0,14 -111,0 -111,0 0,-13.9366 z m 186.75847,-88.3134 -0.25847,-55.25 -75.75,-0.25629 -75.75,-0.25628 0,54.99426 0,54.99426 37.75,0.27442 c 20.7625,0.15093 54.96631,0.38133 76.00847,0.51203 l 38.25846,0.2376 -0.25846,-55.25 z m -78.75847,15.28753 0,-22.96248 -9.25,-0.28752 -9.25,-0.28753 -0.29569,-6.75 -0.29569,-6.75 2.86419,0 c 8.9537,0 17.79207,-5.62386 19.12511,-12.16932 l 0.67832,-3.33068 7.71188,-0.29206 7.71188,-0.29207 0,38.04207 0,38.04206 -9.5,0 -9.5,0 0,-22.96247 z m -57.25,-217.68551 c 2.8875,-0.34683 5.25,-1.02487 5.25,-1.50676 0,-0.74887 -2.50604,-4.65136 -14.07866,-21.92374 -2.59154,-3.86793 -12.28612,-24.4511 -15.2704,-32.42152 -3.55525,-9.49538 -8.18522,-26.42948 -9.63774,-35.25 l -1.1939,-7.25 -7.90965,0 -7.90965,0 0,-4.53138 c 0,-3.43294 -0.42422,-4.66884 -1.75,-5.0984 -0.9625,-0.31186 -6.25,-2.78067 -11.75,-5.48625 -17.01982,-8.37245 -27.82218,-20.53495 -30.58535,-34.43644 l -1.29594,-6.51984 -8.55935,0.28616 -8.55936,0.28615 0.30943,10.5 c 0.97712,33.15653 9.01439,68.26136 20.79988,90.84883 17.21312,32.98976 42.44988,49.88401 78.39069,52.47709 2.475,0.17856 5.4,0.39937 6.5,0.49068 1.1,0.0913 4.3625,-0.11775 7.25,-0.46458 z m 149.25,-2.0151 c 26.7379,-5.16784 47.84908,-21.58193 62.42122,-48.53291 12.33371,-22.81105 20.73344,-58.63072 21.76257,-92.80401 l 0.31621,-10.5 -8.43628,0 -8.43628,0 -1.692,6.70444 c -2.29984,9.11299 -5.95855,15.13007 -13.72703,22.57536 -6.18384,5.92658 -17.76447,12.79436 -26.95841,15.98743 -3.02538,1.05072 -3.25,1.44334 -3.25,5.68075 l 0,4.55202 -7.90965,0 -7.90965,0 -1.1939,7.25 c -4.14928,25.1967 -15.17215,52.66103 -30.74351,76.5998 -9.15544,14.07522 -9.08189,13.88391 -5.57188,14.49317 4.84136,0.84037 22.42794,-0.28575 31.32859,-2.00605 z M 120.78048,968.55206 c -9.28631,-1.43568 -21.017503,-8.81081 -26.692973,-16.78128 l -1.95312,-2.7429 4.83792,-3.16718 c 19.576253,-12.81573 46.066863,-11.19976 59.098633,3.60512 2.16099,2.45501 3.92907,4.83858 3.92907,5.29682 0,0.45825 -3.14905,3.04466 -6.99789,5.7476 -9.55381,6.70938 -21.52104,9.69614 -32.22164,8.04182 z m 385.71953,0.11633 c -2.75,-0.43283 -7.28609,-1.66725 -10.08021,-2.74314 -5.24867,-2.02104 -16.41979,-9.80766 -16.41979,-11.44511 0,-2.1022 10.41698,-11.13379 15.55441,-13.48578 13.81083,-6.32281 33.60955,-4.27366 47.19559,4.8847 2.3375,1.5757 4.25,3.25878 4.25,3.74016 0,1.4908 -5.18378,7.12745 -10.20494,11.09644 -8.34414,6.59567 -19.80397,9.60398 -30.29506,7.95273 z m -316.5,-7.15272 C 128.06569,927.38733 89.574627,889.31103 69.837404,842.6479 c -10.36221,-24.49854 -14.99739,-54.52815 -11.24025,-72.82134 0.48154,-2.3446 1.79533,-2.44074 8.40285,-0.61484 1.26134,0.34855 1.50702,3.31999 1.54412,18.67534 0.0404,16.70353 0.28121,19.15629 2.82406,28.76084 9.861233,37.2465 33.254846,70.97994 69.131826,99.68766 13.5738,10.86137 32.61679,23.6482 46.5,31.22346 6.325,3.45118 11.86241,6.61793 12.30536,7.03723 1.08071,1.02302 -0.0106,5.04012 -2.10565,7.7509 l -1.69971,2.19925 -5.5,-3.03073 z m 252.6602,0.73639 c -0.86339,-1.31771 -1.84142,-3.47801 -2.17338,-4.80066 -0.55265,-2.20192 0.35048,-2.93789 10.7048,-8.7234 50.71087,-28.33488 85.94669,-62.00774 105.24862,-100.5801 11.82061,-23.62191 15.95412,-40.83555 15.40013,-64.13247 l -0.34037,-14.31379 4.48494,-0.95575 c 2.95661,-0.63006 4.69644,-0.61353 5.10561,0.0485 1.28959,2.08661 1.82279,18.83459 0.87293,27.41922 -2.75553,24.90392 -9.21878,44.67712 -21.63633,66.19267 -19.74474,34.21119 -50.39518,63.58961 -93.32715,89.45403 -8.12342,4.89396 -21.99668,12.78759 -22.47452,12.78759 -0.1625,0 -1.00188,-1.07813 -1.86528,-2.39584 z M 172.68053,935.32657 c -16.59807,-11.80079 -21.60529,-35.60248 -12.08142,-57.42867 1.25996,-2.8875 2.84517,-5.25 3.52269,-5.25 2.10097,0 11.57414,7.03815 14.68722,10.91196 10.99128,13.67719 12.69433,30.19553 4.74138,45.98797 -4.78035,9.49252 -5.27585,9.75594 -10.86987,5.77874 z m 287.93468,1.44863 c -3.18944,-3.5243 -7.64762,-14.29875 -8.54845,-20.65979 -1.71205,-12.08926 1.58307,-23.66896 9.23896,-32.46751 3.64096,-4.18438 12.53175,-11 14.34922,-11 1.61645,0 3.51937,3.63496 6.28204,12 3.98311,12.0604 2.84008,26.42877 -3.03332,38.13032 -2.13698,4.25749 -9.92979,12.31472 -13.89255,14.36394 -2.48838,1.28679 -2.93285,1.24968 -4.3959,-0.36696 z M 78.000007,933.51243 c -3.025003,-0.49591 -7.899473,-2.1106 -10.832163,-3.58819 -5.44436,-2.74305 -14.96756,-12.05458 -17.66658,-17.2739 l -1.48154,-2.86499 5.24014,-2.54312 c 8.57604,-4.16208 17.17845,-5.90953 26.240143,-5.33028 14.12066,0.90263 23.334153,5.59512 32.178853,16.38891 l 3.75245,4.57937 -2.46261,1.99411 c -4.60621,3.72988 -13.739943,7.69302 -20.113293,8.72719 -7.1382,1.15828 -7.25069,1.15761 -14.8554,-0.0891 z m 467.000003,-0.23379 c -6.04976,-1.32176 -13.21168,-4.62965 -17.60056,-8.12922 l -2.8367,-2.26191 3.75543,-4.58301 c 9.71781,-11.85931 18.44844,-15.89819 34.68183,-16.04417 10.97868,-0.0987 17.28261,1.31837 25.19279,5.6632 l 3.69278,2.02834 -1.86342,3.59802 c -2.38279,4.60081 -11.21523,13.10836 -17.02215,16.396 -4.54658,2.57409 -13.79665,4.77227 -19.43366,4.6182 -1.68649,-0.0461 -5.54134,-0.62455 -8.56634,-1.28545 z m -43.14418,-34.9444 c -17.00581,-16.29442 -19.53227,-38.36443 -6.44975,-56.34197 2.46374,-3.3856 4.91312,-6.42361 5.44306,-6.75113 1.49234,-0.92231 9.98846,9.14206 13.36631,15.83353 4.31894,8.55578 6.27802,20.719 4.77365,29.63789 -1.21569,7.20745 -6.84589,18.10035 -10.66679,20.63734 -1.74924,1.16145 -2.44627,0.83638 -6.46648,-3.01566 z m -374.85351,-2.92459 c -2.22944,-3.43103 -4.47009,-7.81853 -4.97922,-9.75 -4.17119,-15.82408 0.47701,-34.14852 11.70778,-46.15512 4.43122,-4.73733 4.63561,-4.83507 6.53129,-3.1235 3.064,2.76644 8.5482,11.48322 10.28466,16.34681 5.43181,15.21374 0.75015,33.1087 -11.7397,44.87327 -2.36294,2.22574 -5.07364,4.04679 -6.02377,4.04679 -1.01887,0 -3.3903,-2.55898 -5.78104,-6.23825 z m -70.654436,-2.12467 c -15.61404,-3.95979 -25.13217,-13.02497 -30.91464,-29.44345 -2.25719,-6.40896 -1.9146,-6.76871 7.39516,-7.7657 13.91116,-1.48976 30.97563,4.18664 39.78799,13.23525 4.1899,4.30223 9.037203,12.80847 10.846063,19.03313 0.56609,1.94801 0.0521,2.37036 -4.54603,3.73587 -7.507443,2.22947 -16.611853,2.71554 -22.568543,1.2049 z m 512.152126,0.7429 c -11.5711,-2.92661 -12.61977,-3.42419 -11.95715,-5.67349 2.91393,-9.89153 9.21805,-18.94806 16.48313,-23.67974 8.75027,-5.69898 17.4645,-8.32537 27.97402,-8.43114 10.25068,-0.10316 15,0.73659 15,2.65223 0,3.3253 -5.7645,15.61507 -9.43786,20.12128 -5.20735,6.38799 -10.37017,10.0315 -18.06214,12.74682 -5.92731,2.09239 -16.11773,3.24597 -20,2.26404 z M 96.733977,861.8979 c -0.8668,-0.9625 -2.82586,-4.225 -4.35347,-7.25 -3.66338,-7.25432 -4.54167,-20.92148 -1.87302,-29.14648 2.90472,-8.9526 7.29153,-16.21723 13.507063,-22.36791 5.85916,-5.79802 5.93889,-5.83773 7.99159,-3.98007 1.14036,1.03202 3.74299,5.25705 5.78362,9.38898 3.57679,7.24235 3.7096,7.89195 3.69223,18.05903 -0.0165,9.65884 -0.27537,11.0935 -3.07582,17.04645 -3.08259,6.55271 -10.2011,14.68386 -15.89513,18.15629 -3.699803,2.25627 -3.827643,2.25835 -5.777063,0.0937 z m 437.578583,-2.50405 c -6.74856,-5.52373 -9.73249,-9.26761 -13.07781,-16.40844 -2.43538,-5.19851 -2.73474,-6.98689 -2.73474,-16.33751 0,-9.74508 0.22708,-10.96733 3.15845,-17 1.73715,-3.575 4.32181,-7.85 5.74371,-9.5 l 2.58525,-3 6.48002,6.7314 c 10.76225,11.17974 15.06239,22.18774 14.32479,36.67032 -0.34958,6.86407 -1.00086,9.70759 -3.22906,14.09828 -3.11582,6.13975 -5.33288,9.002 -6.96815,8.99595 -0.60225,-0.002 -3.42936,-1.91472 -6.28246,-4.25 z M 39.458554,847.27348 C 21.331374,842.79601 9.1127841,828.47078 7.3630541,809.64428 l -0.65025,-6.99638 3.8935999,0.0174 c 6.27206,0.028 17.11389,2.69365 23.17146,5.69715 7.47508,3.70634 17.16906,13.32637 20.64194,20.48445 2.09898,4.32629 2.80292,7.33707 2.92258,12.5 l 0.15762,6.801 -6.5,0.18542 c -3.575,0.10198 -8.76865,-0.37495 -11.54145,-1.05984 z m 542.879586,-0.18681 c -0.3295,-0.85868 -0.30494,-4.12118 0.0546,-7.25 2.18175,-18.98695 20.74508,-34.51328 44.01522,-36.81426 l 6.90794,-0.68306 -0.66576,7.16329 c -0.99359,10.69065 -4.89685,19.5012 -11.63836,26.27045 -6.27956,6.3054 -11.25971,9.18341 -19.69136,11.37957 -7.85656,2.04638 -18.18546,2.01047 -18.98227,-0.066 z M 80.521357,803.3979 c -3.10087,-4.38234 -5.817283,-15.56533 -5.248033,-21.60519 0.84969,-9.01543 4.403103,-18.147 9.937233,-25.53675 6.1214,-8.17392 15.312943,-15.39521 17.695233,-13.90216 2.39471,1.50084 7.11038,14.6555 7.75829,21.64225 1.34851,14.5417 -7.66957,30.35894 -21.975563,38.544 -2.98758,1.70932 -5.68917,3.10785 -6.00353,3.10785 -0.31437,0 -1.288,-1.0125 -2.16363,-2.25 z m 470.478653,-0.87129 c -14.11105,-7.95996 -23.46284,-25.30385 -21.56942,-40.00281 0.84865,-6.58829 5.4916,-18.80789 7.66364,-20.16965 1.22348,-0.76706 2.85908,-0.0651 7.03323,3.01853 11.27525,8.32952 19.16858,22.1086 20.60282,35.96554 0.77666,7.50366 -4.14052,24.32497 -7.10341,24.3003 -0.61977,-0.005 -3.60186,-1.40552 -6.62686,-3.11191 z M 39.214954,801.10237 c -20.49474,-6.44629 -32.7702999,-26.1697 -29.2168499,-46.94335 1.7050099,-9.96759 1.7253699,-9.98801 7.6950199,-7.71972 12.0687,4.58574 23.19561,14.78047 28.60505,26.2086 2.70107,5.70633 3.08438,7.59893 3.13929,15.5 0.0344,4.95 -0.28353,10.2375 -0.70651,11.75 -0.87675,3.13511 -2.66021,3.36085 -9.516,1.20447 z m 552.059076,-0.0793 c -0.41759,-1.03135 -0.76258,-6.37517 -0.76664,-11.87517 -0.007,-9.33734 0.21655,-10.45814 3.37182,-16.91368 5.74484,-11.75367 18.93987,-23.09288 30.84578,-26.50744 l 3.17598,-0.91086 1.69544,7.62069 c 4.15196,18.66223 -4.80503,37.32395 -21.92479,45.6799 -9.16081,4.47128 -15.32183,5.56335 -16.39759,2.90654 z M 59.041684,752.35648 c -5.26275,-6.45798 -7.62335,-11.00492 -9.54644,-18.38818 -3.76858,-14.46853 0.71119,-28.8873 12.47561,-40.1545 l 4.52536,-4.3341 2.85848,3.3341 c 3.87551,4.52036 8.334643,14.02065 9.725513,20.72044 0.62986,3.03397 0.95952,9.3996 0.73261,14.14583 -0.4697,9.82414 -3.477633,17.37731 -9.633913,24.19157 -5.75822,6.37366 -6.31842,6.39805 -11.13722,0.48484 z m 511.552116,0.28824 c -6.90925,-7.38655 -9.8933,-14.57065 -10.40311,-25.04549 -0.22884,-4.70177 0.0993,-11.03102 0.72912,-14.06499 1.39087,-6.69979 5.85,-16.20008 9.72551,-20.72044 l 2.85848,-3.3341 4.52536,4.3341 c 12.90537,12.35993 16.94318,29.14207 10.89866,45.2975 -2.03025,5.42634 -10.34131,17.50777 -12.55053,18.24417 -0.57739,0.19247 -3.17996,-1.92737 -5.78349,-4.71075 z"
       id="path3347"
       inkscape:connector-curvature="0" />
  </g>
</svg>
