# Blender v2.78 (sub 0) OBJ File: ''
# www.blender.org
mtllib wand.mtl
o vsn_mesh_0_WAND7A_mesh_0_WAND7A
v 0.027733 0.016472 -0.412920
v -0.000564 0.032540 -0.412898
v 0.020271 0.011993 -0.202967
v -0.000725 0.044414 -0.507678
v 0.020441 -0.011700 -0.202967
v 0.037899 0.022483 -0.507709
v 0.027966 -0.016068 -0.412921
v -0.000332 0.023693 -0.202951
v -0.039030 0.021932 -0.507647
v -0.028628 0.016068 -0.412875
v 0.000007 -0.023693 -0.202951
v 0.018696 -0.010613 0.008391
v 0.000161 -0.021492 0.008406
v -0.000982 0.072545 -0.577243
v 0.038217 -0.021932 -0.507709
v 0.062104 0.036722 -0.577294
v -0.020766 0.011700 -0.202934
v 0.018542 0.010879 0.008391
v -0.000147 0.021492 0.008406
v -0.063548 0.035823 -0.577193
v -0.038712 -0.022483 -0.507647
v -0.063029 -0.036722 -0.577194
v -0.018529 -0.010879 0.008421
v -0.000098 -0.032540 -0.412898
v -0.020596 -0.011993 -0.202935
v -0.001228 0.095724 -0.677365
v 0.062623 -0.035823 -0.577294
v 0.082014 0.048455 -0.677432
v -0.018683 0.010613 0.008421
v -0.028395 -0.016472 -0.412875
v 0.018324 -0.010296 0.240092
v 0.018174 0.010554 0.240092
v -0.083099 -0.048455 -0.677300
v 0.000057 -0.072545 -0.577244
v 0.000143 -0.095724 -0.677366
v -0.017790 -0.010554 0.240121
v 0.000342 -0.020850 0.240107
v -0.083784 0.047268 -0.677299
v -0.000089 -0.044415 -0.507678
v -0.001100 0.066591 -0.778354
v 0.082699 -0.047268 -0.677432
v 0.056808 0.033708 -0.778401
v 0.000043 0.020850 0.240107
v -0.017939 0.010296 0.240121
v 0.000586 -0.017419 0.576325
v 0.015609 -0.008601 0.576313
v -0.058054 -0.033709 -0.778309
v -0.058531 0.032883 -0.778308
v 0.057285 -0.032883 -0.778401
v -0.000663 -0.000000 -0.828476
v -0.014686 0.008601 0.576337
v -0.014561 -0.008817 0.576337
v 0.015484 0.008817 0.576313
v 0.000337 0.017419 0.576325
v -0.000147 -0.066591 -0.778355
v 0.000517 0.000000 0.645015
vt 0.6618 0.6190
vt 0.3425 0.6190
vt 0.6618 0.3793
vt 0.3316 0.7431
vt 0.8856 0.3793
vt 0.6727 0.7431
vt 0.8856 0.6190
vt 0.3425 0.3793
vt 0.1187 0.7431
vt 0.1187 0.6190
vt 0.6618 0.3793
vt 0.8856 0.3248
vt 0.6618 0.3248
vt 0.3316 0.8040
vt 0.8856 0.7431
vt 0.6727 0.8040
vt 0.1187 0.3793
vt 0.6618 0.3248
vt 0.3425 0.3248
vt 0.1187 0.8040
vt 0.3316 0.7431
vt 0.3316 0.8040
vt 0.3425 0.3248
vt 0.6618 0.6190
vt 0.3425 0.3793
vt 0.3316 0.8413
vt 0.8856 0.8040
vt 0.6727 0.8413
vt 0.1187 0.3248
vt 0.3425 0.6190
vt 0.8856 0.2342
vt 0.6618 0.2342
vt 0.3316 0.8413
vt 0.6727 0.8040
vt 0.6727 0.8413
vt 0.3425 0.2342
vt 0.6618 0.2342
vt 0.1187 0.8413
vt 0.6727 0.7431
vt 0.3492 0.9238
vt 0.8856 0.8413
vt 0.6551 0.9238
vt 0.3425 0.2342
vt 0.1187 0.2342
vt 0.6618 0.0708
vt 0.8856 0.0708
vt 0.3492 0.9238
vt 0.1187 0.9238
vt 0.8856 0.9238
vt 0.5021 0.9766
vt 0.1187 0.0708
vt 0.3425 0.0708
vt 0.6618 0.0708
vt 0.3425 0.0708
vt 0.6551 0.9238
vt 0.5021 0.0261
vn 0.8594 0.5044 0.0837
vn -0.0070 0.9964 0.0844
vn 0.8621 0.5060 0.0257
vn -0.0067 0.9649 0.2624
vn 0.8693 -0.4936 0.0257
vn 0.8324 0.4884 0.2617
vn 0.8665 -0.4920 0.0837
vn -0.0071 0.9996 0.0264
vn -0.8389 0.4765 0.2631
vn -0.8664 0.4920 0.0851
vn 0.0072 -0.9996 0.0264
vn 0.8696 -0.4938 0.0059
vn 0.0071 -0.9999 0.0066
vn -0.0066 0.9557 0.2942
vn 0.8393 -0.4765 0.2617
vn 0.8245 0.4838 0.2935
vn -0.8692 0.4936 0.0271
vn 0.8624 0.5061 0.0059
vn -0.0071 0.9999 0.0066
vn -0.8308 0.4719 0.2948
vn -0.8320 -0.4884 0.2630
vn -0.8240 -0.4838 0.2948
vn -0.8624 -0.5061 0.0073
vn 0.0072 -0.9964 0.0844
vn -0.8621 -0.5060 0.0271
vn -0.0072 0.9997 -0.0248
vn 0.8313 -0.4719 0.2935
vn 0.8621 0.5060 -0.0255
vn -0.8695 0.4938 0.0073
vn -0.8592 -0.5044 0.0851
vn 0.8696 -0.4938 0.0058
vn 0.8624 0.5061 0.0058
vn -0.8622 -0.5060 -0.0240
vn 0.0070 -0.9557 0.2942
vn 0.0071 -0.9997 -0.0248
vn -0.8624 -0.5061 0.0071
vn 0.0071 -0.9999 0.0065
vn -0.8693 0.4936 -0.0240
vn 0.0071 -0.9649 0.2624
vn -0.0065 0.8516 -0.5242
vn 0.8693 -0.4936 -0.0255
vn 0.7340 0.4310 -0.5248
vn -0.0071 0.9999 0.0065
vn -0.8695 0.4938 0.0072
vn 0.0072 -0.9922 0.1243
vn 0.8629 -0.4899 0.1236
vn -0.7349 -0.4310 -0.5236
vn -0.7409 0.4205 -0.5236
vn 0.7401 -0.4205 -0.5248
vn -0.0008 0.0000 -1.0000
vn -0.8627 0.4899 0.1250
vn -0.8556 -0.5022 0.1250
vn 0.8558 0.5022 0.1236
vn -0.0070 0.9922 0.1243
vn 0.0057 -0.8516 -0.5242
vn 0.0008 0.0000 1.0000
usemtl phong2_mat_003
s 1
f 1/1/1 2/2/2 3/3/3
f 1/1/1 4/4/4 2/2/2
f 1/1/1 3/3/3 5/5/5
f 1/1/1 6/6/6 4/4/4
f 1/1/1 5/5/5 7/7/7
f 1/1/1 7/7/7 6/6/6
f 2/2/2 8/8/8 3/3/3
f 2/2/2 4/4/4 9/9/9
f 2/2/2 10/10/10 8/8/8
f 2/2/2 9/9/9 10/10/10
f 5/5/5 11/11/11 7/7/7
f 5/5/5 3/3/3 12/12/12
f 5/5/5 13/13/13 11/11/11
f 5/5/5 12/12/12 13/13/13
f 6/6/6 14/14/14 4/4/4
f 6/6/6 7/7/7 15/15/15
f 6/6/6 16/16/16 14/14/14
f 6/6/6 15/15/15 16/16/16
f 8/8/8 10/10/10 17/17/17
f 8/8/8 18/18/18 3/3/3
f 8/8/8 17/17/17 19/19/19
f 8/8/8 19/19/19 18/18/18
f 3/3/3 18/18/18 12/12/12
f 9/9/9 4/4/4 20/20/20
f 9/9/9 21/21/21 10/10/10
f 9/9/9 20/20/20 22/22/22
f 9/9/9 22/22/22 21/21/21
f 4/4/4 14/14/14 20/20/20
f 11/11/11 13/13/13 23/23/23
f 11/11/11 24/24/24 7/7/7
f 11/11/11 23/23/23 25/25/25
f 11/11/11 25/25/25 24/24/24
f 7/7/7 24/24/24 15/15/15
f 16/16/16 26/26/26 14/14/14
f 16/16/16 15/15/15 27/27/27
f 16/16/16 28/28/28 26/26/26
f 16/16/16 27/27/27 28/28/28
f 17/17/17 29/29/29 19/19/19
f 17/17/17 10/10/10 30/30/30
f 17/17/17 25/25/25 29/29/29
f 17/17/17 30/30/30 25/25/25
f 25/25/25 23/23/23 29/29/29
f 25/25/25 30/30/30 24/24/24
f 10/10/10 21/21/21 30/30/30
f 18/18/18 31/31/31 12/12/12
f 18/18/18 19/19/19 32/32/32
f 18/18/18 32/32/32 31/31/31
f 22/22/22 20/20/20 33/33/33
f 22/22/22 34/34/34 21/21/21
f 22/22/22 33/33/33 35/35/35
f 22/22/22 35/35/35 34/34/34
f 13/13/13 36/36/36 23/23/23
f 13/13/13 12/12/12 37/37/37
f 13/13/13 37/37/37 36/36/36
f 12/12/12 31/31/31 37/37/37
f 14/14/14 26/26/26 38/38/38
f 14/14/14 38/38/38 20/20/20
f 20/20/20 38/38/38 33/33/33
f 15/15/15 39/39/39 27/27/27
f 15/15/15 24/24/24 39/39/39
f 39/39/39 24/24/24 30/30/30
f 39/39/39 21/21/21 34/34/34
f 39/39/39 34/34/34 27/27/27
f 39/39/39 30/30/30 21/21/21
f 28/28/28 40/40/40 26/26/26
f 28/28/28 27/27/27 41/41/41
f 28/28/28 42/42/42 40/40/40
f 28/28/28 41/41/41 42/42/42
f 34/34/34 35/35/35 41/41/41
f 34/34/34 41/41/41 27/27/27
f 29/29/29 43/43/43 19/19/19
f 29/29/29 23/23/23 44/44/44
f 29/29/29 44/44/44 43/43/43
f 23/23/23 36/36/36 44/44/44
f 19/19/19 43/43/43 32/32/32
f 31/31/31 45/45/45 37/37/37
f 31/31/31 32/32/32 46/46/46
f 31/31/31 46/46/46 45/45/45
f 38/38/38 47/47/47 33/33/33
f 38/38/38 26/26/26 48/48/48
f 38/38/38 48/48/48 47/47/47
f 26/26/26 40/40/40 48/48/48
f 42/42/42 41/41/41 49/49/49
f 42/42/42 50/50/50 40/40/40
f 42/42/42 49/49/49 50/50/50
f 48/48/48 50/50/50 47/47/47
f 48/48/48 40/40/40 50/50/50
f 41/41/41 35/35/35 49/49/49
f 36/36/36 51/51/51 44/44/44
f 36/36/36 37/37/37 52/52/52
f 36/36/36 52/52/52 51/51/51
f 37/37/37 45/45/45 52/52/52
f 43/43/43 53/53/53 32/32/32
f 43/43/43 44/44/44 54/54/54
f 43/43/43 54/54/54 53/53/53
f 44/44/44 51/51/51 54/54/54
f 32/32/32 53/53/53 46/46/46
f 33/33/33 47/47/47 55/55/55
f 33/33/33 55/55/55 35/35/35
f 55/55/55 50/50/50 49/49/49
f 55/55/55 47/47/47 50/50/50
f 55/55/55 49/49/49 35/35/35
f 45/45/45 56/56/56 52/52/52
f 45/45/45 46/46/46 56/56/56
f 56/56/56 51/51/51 52/52/52
f 56/56/56 54/54/54 51/51/51
f 56/56/56 53/53/53 54/54/54
f 56/56/56 46/46/46 53/53/53
